<?xml version="1.0" encoding="UTF-8" standalone="no"?>
<!-- Created with Inkscape (http://www.inkscape.org/) -->
<svg
   xmlns:dc="http://purl.org/dc/elements/1.1/"
   xmlns:cc="http://web.resource.org/cc/"
   xmlns:rdf="http://www.w3.org/1999/02/22-rdf-syntax-ns#"
   xmlns:svg="http://www.w3.org/2000/svg"
   xmlns="http://www.w3.org/2000/svg"
   xmlns:xlink="http://www.w3.org/1999/xlink"
   xmlns:sodipodi="http://sodipodi.sourceforge.net/DTD/sodipodi-0.dtd"
   xmlns:inkscape="http://www.inkscape.org/namespaces/inkscape"
   width="800"
   height="600"
   id="svg2"
   sodipodi:version="0.32"
   inkscape:version="0.45.1"
   version="1.0"
   sodipodi:docbase="/Users/marc/Desktop/img"
   sodipodi:docname="robin_splash.svg"
   inkscape:output_extension="org.inkscape.output.svg.inkscape">
  <defs
     id="defs4">
    <linearGradient
       id="linearGradient3415">
      <stop
         id="stop3417"
         offset="0"
         style="stop-color:#4048cc;stop-opacity:0.43529412;" />
      <stop
         id="stop3419"
         offset="1"
         style="stop-color:#1fd00a;stop-opacity:0;" />
    </linearGradient>
    <linearGradient
       id="linearGradient3366">
      <stop
         id="stop3368"
         offset="0"
         style="stop-color:#1f8510;stop-opacity:0.43523315;" />
      <stop
         id="stop3370"
         offset="1"
         style="stop-color:#126d06;stop-opacity:0" />
    </linearGradient>
    <linearGradient
       id="linearGradient3342">
      <stop
         style="stop-color:#242424;stop-opacity:0.43529412;"
         offset="0"
         id="stop3344" />
      <stop
         style="stop-color:#1fd00a;stop-opacity:0;"
         offset="1"
         id="stop3346" />
    </linearGradient>
    <linearGradient
       id="linearGradient3210">
      <stop
         style="stop-color:#ffffff;stop-opacity:1;"
         offset="0"
         id="stop3212" />
      <stop
         style="stop-color:#ffffff;stop-opacity:0.82383418;"
         offset="1"
         id="stop3214" />
    </linearGradient>
    <linearGradient
       inkscape:collect="always"
       xlink:href="#linearGradient3210"
       id="linearGradient3216"
       x1="6.0609155"
       y1="594.94922"
       x2="1558.6654"
       y2="-553.59418"
       gradientUnits="userSpaceOnUse" />
    <linearGradient
       inkscape:collect="always"
       xlink:href="#linearGradient3342"
       id="linearGradient3348"
       x1="660.48218"
       y1="-137.51506"
       x2="195.05359"
       y2="459.62781"
       gradientUnits="userSpaceOnUse" />
    <linearGradient
       inkscape:collect="always"
       xlink:href="#linearGradient3366"
       id="linearGradient3356"
       x1="539.05359"
       y1="126.77065"
       x2="442.19644"
       y2="593.91351"
       gradientUnits="userSpaceOnUse" />
    <linearGradient
       inkscape:collect="always"
       xlink:href="#linearGradient3415"
       id="linearGradient3364"
       x1="486.19644"
       y1="181.05638"
       x2="422.19644"
       y2="743.91351"
       gradientUnits="userSpaceOnUse"
       gradientTransform="translate(-2.8571429,-1.4285714)" />
  </defs>
  <sodipodi:namedview
     id="base"
     pagecolor="#ffffff"
     bordercolor="#666666"
     borderopacity="1.0"
     inkscape:pageopacity="0.0"
     inkscape:pageshadow="2"
     inkscape:zoom="0.7"
     inkscape:cx="423.63791"
     inkscape:cy="368.68955"
     inkscape:document-units="px"
     inkscape:current-layer="layer1"
     width="800px"
     height="600px"
     inkscape:window-width="1294"
     inkscape:window-height="891"
     inkscape:window-x="0"
     inkscape:window-y="0" />
  <metadata
     id="metadata7">
    <rdf:RDF>
      <cc:Work
         rdf:about="">
        <dc:format>image/svg+xml</dc:format>
        <dc:type
           rdf:resource="http://purl.org/dc/dcmitype/StillImage" />
      </cc:Work>
    </rdf:RDF>
  </metadata>
  <g
     inkscape:label="Ebene 1"
     inkscape:groupmode="layer"
     id="layer1">
    <g
       id="g3218">
      <image
         xlink:href="array800_600.png"
         sodipodi:absref="/Users/marc/Desktop/img/array800_600.png"
         width="800"
         height="600"
         id="image2236"
         x="1.0305576"
         y="-0.015313517" />
      <rect
         y="-0.03061194"
         x="0"
         height="602.0509"
         width="797.01038"
         id="rect2239"
         style="opacity:1;fill:url(#linearGradient3216);fill-opacity:1.0;fill-rule:evenodd;stroke:none;stroke-width:9.5;stroke-miterlimit:4;stroke-dasharray:none;stroke-opacity:1" />
    </g>
    <path
       style="opacity:1;fill:url(#linearGradient3348);fill-opacity:1.0;fill-rule:evenodd;stroke:none;stroke-width:9.5;stroke-miterlimit:4;stroke-dasharray:none;stroke-opacity:1"
       d="M 3.3392862,99.910743 L 3.3392862,601.77679 L 799.33929,601.77679 L 799.33929,473.46638 C 798.34106,474.24474 797.42747,475.01893 796.33929,475.80383 C 794.22011,477.33238 791.91468,478.87251 789.43304,480.4164 C 786.9514,481.96029 784.27404,483.48225 781.40179,485.02897 C 775.65729,488.12241 769.74523,491.08851 763.65179,493.88011 C 757.55834,496.67171 751.30534,499.2996 744.90179,501.76511 C 738.49823,504.23061 731.92039,506.53761 725.24554,508.65279 C 718.57069,510.76797 711.77785,512.70905 704.87054,514.44967 C 697.96323,516.19029 690.94024,517.72041 683.83929,519.06224 C 676.73834,520.40406 669.5638,521.54055 662.30804,522.45933 C 655.05228,523.37811 647.74229,524.07594 640.37054,524.54745 C 632.99879,525.01896 625.56945,525.26427 618.12054,525.26427 C 614.39608,525.26427 610.67529,525.17311 606.99554,524.98377 C 603.31579,524.79443 599.68925,524.51627 596.05804,524.14229 C 592.42683,523.76831 588.79315,523.29377 585.21429,522.73982 C 581.63543,522.18588 578.08072,521.53675 574.55804,520.80753 C 571.03536,520.07832 567.55197,519.27639 564.08929,518.37658 C 560.62661,517.47678 557.2069,516.48151 553.80804,515.41581 C 550.40918,514.35012 547.04551,513.21446 543.71429,511.98755 C 540.38307,510.76065 537.06779,509.44407 533.80804,508.06064 C 530.54829,506.67721 527.33625,505.23266 524.15179,503.6974 C 520.96733,502.16214 517.81964,500.54908 514.71429,498.86667 C 508.50358,495.50184 502.46063,491.8527 496.58929,487.9274 C 490.71795,484.0021 485.02818,479.78461 479.52679,475.33634 C 474.0254,470.88807 468.7214,466.18304 463.62054,461.24931 C 460.10742,457.85129 456.67802,454.40128 453.37054,450.9022 C 450.06306,447.40312 446.86494,443.86756 443.74554,440.2746 C 440.62614,436.68163 437.60069,433.04619 434.65179,429.3665 C 431.70289,425.68681 428.82276,421.96832 426.02679,418.20907 C 420.43485,410.69058 415.14367,403.00231 410.05804,395.20856 C 404.97241,387.41482 400.09043,379.5029 395.37054,371.49124 C 390.65065,363.47959 386.08399,355.38518 381.58929,347.21293 C 377.09459,339.04068 372.68688,330.80499 368.27679,322.52946 C 359.45662,305.97841 350.66436,289.28406 341.33929,272.66387 C 332.08236,256.16514 323.20675,238.80566 313.52679,221.42697 C 308.68681,212.73762 303.63739,204.04207 298.24554,195.43453 C 295.54961,191.13076 292.7602,186.83972 289.87054,182.59414 C 286.98088,178.34855 283.99111,174.16533 280.87054,170.00307 C 277.74997,165.84081 274.50919,161.71512 271.12054,157.66134 C 267.73189,153.60756 264.18945,149.61375 260.49554,145.6936 C 256.80163,141.77344 252.96939,137.92356 248.93304,134.16218 C 244.89669,130.4008 240.66151,126.73803 236.24554,123.16058 C 231.82957,119.58313 227.2033,116.08834 222.37054,112.71997 C 217.53778,109.3516 212.50101,106.09916 207.21429,102.96502 C 201.92757,99.830869 196.39841,96.801636 190.62054,93.926872 C 184.84267,91.052109 178.83298,88.320449 172.52679,85.730215 C 169.3847,84.439616 166.25323,83.268552 163.15179,82.177291 C 160.05035,81.086031 156.95887,80.087537 153.90179,79.185356 C 147.78763,77.380992 141.78497,75.931712 135.87054,74.822116 C 129.95611,73.71252 124.14929,72.950398 118.46429,72.4535 C 112.77929,71.956603 107.20267,71.734115 101.77679,71.767848 C 96.350906,71.801582 91.070096,72.064703 85.933036,72.546998 C 80.795976,73.029293 75.814076,73.723998 70.995536,74.572788 C 66.176996,75.421578 61.528366,76.431507 57.058036,77.564724 C 52.587706,78.69794 48.275446,79.969067 44.183036,81.304643 C 40.090626,82.64022 36.211586,84.056186 32.526786,85.512053 C 28.841986,86.96792 25.368036,88.443535 22.120536,89.937624 C 15.625546,92.925804 10.031856,95.921943 5.4642862,98.570606 C 4.5412762,99.105843 4.1777562,99.405485 3.3392862,99.910743 z "
       id="path3233" />
    <path
       id="path3235"
       d="M 3.3392858,290.71835 L 3.3392858,603.20536 L 799.33929,603.20536 L 799.33929,523.31285 C 798.34106,523.7975 797.42747,524.27955 796.33929,524.76827 C 794.22011,525.72002 791.91468,526.67898 789.43304,527.64028 C 786.9514,528.60159 784.27404,529.54923 781.40179,530.5123 C 775.65729,532.43843 769.74523,534.28528 763.65179,536.02347 C 757.55834,537.76165 751.30534,539.39791 744.90179,540.93306 C 738.49823,542.46821 731.92039,543.90466 725.24554,545.22168 C 718.57069,546.5387 711.77785,547.74731 704.87054,548.83111 C 697.96323,549.9149 690.94024,550.86764 683.83929,551.70312 C 676.73834,552.53861 669.5638,553.24624 662.30804,553.81832 C 655.05228,554.3904 647.74229,554.82491 640.37054,555.11849 C 632.99879,555.41208 625.56945,555.56482 618.12054,555.56482 C 614.39608,555.56482 610.67529,555.50806 606.99554,555.39017 C 603.31579,555.27228 599.68925,555.09908 596.05804,554.86622 C 592.42683,554.63336 588.79315,554.33789 585.21429,553.99297 C 581.63543,553.64806 578.08072,553.24388 574.55804,552.78983 C 571.03536,552.33579 567.55197,551.83646 564.08929,551.2762 C 560.62661,550.71594 557.2069,550.09623 553.80804,549.43268 C 550.40918,548.76912 547.04551,548.062 543.71429,547.29807 C 540.38307,546.53414 537.06779,545.71437 533.80804,544.85298 C 530.54829,543.99158 527.33625,543.09213 524.15179,542.1362 C 520.96733,541.18027 517.81964,540.1759 514.71429,539.12835 C 508.50358,537.03324 502.46063,534.7611 496.58929,532.31701 C 490.71795,529.87292 485.02818,527.2469 479.52679,524.47718 C 474.0254,521.70747 468.7214,518.77788 463.62054,515.70589 C 460.10742,513.59011 456.67802,511.44196 453.37054,509.26326 C 450.06306,507.08456 446.86494,504.88314 443.74554,502.64598 C 440.62614,500.40882 437.60069,498.14521 434.65179,495.85405 C 431.70289,493.56289 428.82276,491.24757 426.02679,488.90688 C 420.43485,484.22548 415.14367,479.43838 410.05804,474.5856 C 404.97241,469.73283 400.09043,464.80647 395.37054,459.81801 C 390.65065,454.82955 386.08399,449.78957 381.58929,444.70111 C 377.09459,439.61266 372.68688,434.4847 368.27679,429.33194 C 359.45662,419.02643 350.66436,408.63169 341.33929,398.28312 C 332.08236,388.01018 323.20675,377.2013 313.52679,366.38045 C 308.68681,360.97003 303.63739,355.55574 298.24554,350.19625 C 295.54961,347.51651 292.7602,344.8447 289.87054,342.20118 C 286.98088,339.55766 283.99111,336.95298 280.87054,334.36135 C 277.74997,331.76972 274.50919,329.20086 271.12054,326.67677 C 267.73189,324.15268 264.18945,321.66593 260.49554,319.22505 C 256.80163,316.78417 252.96939,314.38703 248.93304,312.04501 C 244.89669,309.70298 240.66151,307.42236 236.24554,305.19486 C 231.82957,302.96736 227.2033,300.79133 222.37054,298.69401 C 217.53778,296.5967 212.50101,294.57156 207.21429,292.62009 C 201.92757,290.66861 196.39841,288.78246 190.62054,286.99249 C 184.84267,285.20252 178.83298,283.50165 172.52679,281.88884 C 169.3847,281.08525 166.25323,280.35608 163.15179,279.67661 C 160.05035,278.99714 156.95887,278.37542 153.90179,277.81368 C 147.78763,276.69019 141.78497,275.7878 135.87054,275.09691 C 129.95611,274.40602 124.14929,273.93148 118.46429,273.62209 C 112.77929,273.3127 107.20267,273.17416 101.77679,273.19517 C 96.350906,273.21617 91.070096,273.38 85.933036,273.68031 C 80.795976,273.98061 75.814076,274.41316 70.995536,274.94166 C 66.176996,275.47016 61.528366,276.099 57.058036,276.80459 C 52.587706,277.51019 48.275446,278.30166 44.183036,279.13326 C 40.090626,279.96485 36.211586,280.8465 32.526786,281.753 C 28.841986,282.6595 25.368036,283.57829 22.120536,284.50858 C 15.625546,286.36917 10.031856,288.23472 5.4642858,289.88391 C 4.5412758,290.21718 4.1777558,290.40375 3.3392858,290.71835 z "
       style="opacity:1;fill:url(#linearGradient3356);fill-opacity:1.0;fill-rule:evenodd;stroke:none;stroke-width:9.5;stroke-miterlimit:4;stroke-dasharray:none;stroke-opacity:1" />
    <path
       style="opacity:1;fill:url(#linearGradient3364);fill-opacity:1;fill-rule:evenodd;stroke:none;stroke-width:9.5;stroke-miterlimit:4;stroke-dasharray:none;stroke-opacity:1"
       d="M 0.48214294,416.44427 L 0.48214294,601.77679 L 796.48215,601.77679 L 796.48215,554.39344 C 795.48392,554.68088 794.57033,554.96678 793.48215,555.25664 C 791.36297,555.82111 789.05754,556.38986 786.5759,556.95999 C 784.09426,557.53014 781.4169,558.09217 778.54465,558.66336 C 772.80015,559.80572 766.88809,560.90107 760.79465,561.93197 C 754.7012,562.96286 748.4482,563.93331 742.04465,564.84379 C 735.64109,565.75427 729.06325,566.60621 722.3884,567.38732 C 715.71355,568.16843 708.92071,568.88525 702.0134,569.52804 C 695.10609,570.17082 688.0831,570.73588 680.98215,571.23139 C 673.8812,571.72691 666.70666,572.1466 659.4509,572.48589 C 652.19514,572.82519 644.88515,573.08289 637.5134,573.25701 C 630.14165,573.43114 622.71231,573.52172 615.2634,573.52172 C 611.53894,573.52172 607.81815,573.48806 604.1384,573.41814 C 600.45865,573.34822 596.83211,573.2455 593.2009,573.10739 C 589.56969,572.96929 585.93601,572.79405 582.35715,572.58948 C 578.77829,572.38491 575.22358,572.1452 571.7009,571.87591 C 568.17822,571.60662 564.69483,571.31048 561.23215,570.97819 C 557.76947,570.64591 554.34976,570.27836 550.9509,569.88482 C 547.55204,569.49127 544.18837,569.07189 540.85715,568.61881 C 537.52593,568.16573 534.21065,567.67953 530.9509,567.16865 C 527.69115,566.65777 524.47911,566.12431 521.29465,565.55736 C 518.11019,564.99041 514.9625,564.39473 511.85715,563.77344 C 505.64644,562.53085 499.60349,561.18327 493.73215,559.73371 C 487.86081,558.28415 482.17104,556.72668 476.66965,555.084 C 471.16826,553.44131 465.86426,551.7038 460.7634,549.88184 C 457.25028,548.627 453.82088,547.35295 450.5134,546.06079 C 447.20592,544.76863 444.0078,543.46299 440.8884,542.13616 C 437.769,540.80932 434.74355,539.4668 431.79465,538.10794 C 428.84575,536.74908 425.96562,535.37589 423.16965,533.98765 C 417.57771,531.21117 412.28653,528.37199 407.2009,525.49386 C 402.11527,522.61574 397.23329,519.69397 392.5134,516.73537 C 387.79351,513.77677 383.22685,510.78762 378.73215,507.76971 C 374.23745,504.75181 369.82974,501.71047 365.41965,498.65443 C 356.59948,492.54235 347.80722,486.37734 338.48215,480.23972 C 329.22522,474.14696 320.34961,467.73633 310.66965,461.31861 C 305.82967,458.10975 300.78025,454.8986 295.3884,451.71994 C 292.69247,450.13062 289.90306,448.546 287.0134,446.97816 C 284.12374,445.41032 281.13397,443.86551 278.0134,442.32844 C 274.89283,440.79138 271.65205,439.26781 268.2634,437.7708 C 264.87475,436.2738 261.33231,434.79893 257.6384,433.35127 C 253.94449,431.90362 250.11225,430.4819 246.0759,429.09287 C 242.03955,427.70384 237.80437,426.35123 233.3884,425.03013 C 228.97243,423.70902 224.34616,422.41844 219.5134,421.17455 C 214.68064,419.93065 209.64387,418.72957 204.35715,417.57217 C 199.07043,416.41477 193.54127,415.29612 187.7634,414.23451 C 181.98553,413.1729 175.97584,412.16413 169.66965,411.20759 C 166.52756,410.73099 163.39609,410.29853 160.29465,409.89554 C 157.19321,409.49255 154.10173,409.12382 151.04465,408.79066 C 144.93049,408.12433 138.92783,407.58913 133.0134,407.17937 C 127.09897,406.76961 121.29215,406.48817 115.60715,406.30467 C 109.92215,406.12118 104.34553,406.03901 98.919647,406.05147 C 93.493763,406.06393 88.212953,406.16109 83.075893,406.3392 C 77.938833,406.51731 72.956933,406.77385 68.138393,407.08729 C 63.319853,407.40074 58.671223,407.7737 54.200893,408.19218 C 49.730563,408.61066 45.418303,409.08007 41.325893,409.57329 C 37.233483,410.06649 33.354443,410.58939 29.669643,411.12702 C 25.984843,411.66466 22.510893,412.20958 19.263393,412.76133 C 12.768403,413.86482 7.1747131,414.97126 2.6071429,415.94937 C 1.6841329,416.14703 1.3206129,416.25769 0.48214294,416.44427 z "
       id="path3237" />
    <image
       y="515.64282"
       x="217.35715"
       id="image2275"
       height="83"
       width="191"
       sodipodi:absref="/Users/marc/Desktop/img/MPI_Logo.png"
       xlink:href="MPI_Logo.png" />
    <image
       y="523.35712"
       x="1.9285802"
       id="image2318"
       height="79"
       width="99"
       sodipodi:absref="/Users/marc/Desktop/img/bioclogo-small.jpg"
       xlink:href="bioclogo-small.jpg" />
    <image
       y="523.42859"
       x="112.85712"
       id="image2361"
       height="76"
       width="100"
       sodipodi:absref="/Users/marc/Desktop/img/Rlogo.png"
       xlink:href="Rlogo.png" />
    <text
       xml:space="preserve"
       style="font-size:12px;font-style:normal;font-weight:normal;fill:#000000;fill-opacity:1;stroke:none;stroke-width:1px;stroke-linecap:butt;stroke-linejoin:miter;stroke-opacity:1;font-family:Bitstream Vera Sans"
       x="9.7142859"
       y="515.42859"
       id="text2364"><tspan
         sodipodi:role="line"
         id="tspan2366"
         x="9.7142859"
         y="515.42859">Powered by:</tspan></text>
  </g>
</svg>
